HIERARCHY
ROOT mixamorig:Hips
{
	OFFSET 0.000000 201.639420 0.000000
	CHANNELS 6 Xposition Yposition Zposition Xrotation Yrotation Zrotation
	JOINT mixamorig:Spine
	{
		OFFSET 0.006200 19.524994 -2.481800
		CHANNELS 3 Xrotation Yrotation Zrotation
		JOINT mixamorig:Spine1
		{
			OFFSET -0.000900 22.835007 -2.825400
			CHANNELS 3 Xrotation Yrotation Zrotation
			JOINT mixamorig:Spine2
			{
				OFFSET -0.020600 26.552490 -3.193300
				CHANNELS 3 Xrotation Yrotation Zrotation
				JOINT mixamorig:Neck
				{
					OFFSET -0.060000 30.701813 1.352200
					CHANNELS 3 Xrotation Yrotation Zrotation
					JOINT mixamorig:Head
					{
						OFFSET -0.087200 22.547607 3.670900
						CHANNELS 3 Xrotation Yrotation Zrotation
						JOINT mixamorig:HeadTop_End
						{
							OFFSET -0.830600 40.355194 7.893500
							CHANNELS 3 Xrotation Yrotation Zrotation
							End Site
							{
								OFFSET 0.000000 30.592346 0.000000
							}
						}
						JOINT mixamorig:RightEye
						{
							OFFSET -6.302100 18.118591 16.197100
							CHANNELS 3 Xrotation Yrotation Zrotation
							End Site
							{
								OFFSET 0.000000 30.592346 0.000000
							}
						}
						JOINT mixamorig:LeftEye
						{
							OFFSET 6.741500 18.382690 16.401899
							CHANNELS 3 Xrotation Yrotation Zrotation
							End Site
							{
								OFFSET 0.000000 30.592346 0.000000
							}
						}
					}
				}
				JOINT mixamorig:LeftShoulder
				{
					OFFSET 11.924900 18.230499 1.425400
					CHANNELS 3 Xrotation Yrotation Zrotation
					JOINT mixamorig:LeftArm
					{
						OFFSET 25.435989 -0.697632 -5.229300
						CHANNELS 3 Xrotation Yrotation Zrotation
						JOINT mixamorig:LeftForeArm
						{
							OFFSET 54.684776 0.000000 0.000000
							CHANNELS 3 Xrotation Yrotation Zrotation
							JOINT mixamorig:LeftHand
							{
								OFFSET 55.098175 0.000000 0.000000
								CHANNELS 3 Xrotation Yrotation Zrotation
								JOINT mixamorig:LeftHandMiddle1
								{
									OFFSET 23.369751 0.000000 0.000000
									CHANNELS 3 Xrotation Yrotation Zrotation
									JOINT mixamorig:LeftHandMiddle2
									{
										OFFSET 6.378677 0.000000 0.000000
										CHANNELS 3 Xrotation Yrotation Zrotation
										JOINT mixamorig:LeftHandMiddle3
										{
											OFFSET 6.148331 0.000000 0.000000
											CHANNELS 3 Xrotation Yrotation Zrotation
											JOINT mixamorig:LeftHandMiddle4
											{
												OFFSET 6.582504 0.000000 0.000000
												CHANNELS 3 Xrotation Yrotation Zrotation
												End Site
												{
													OFFSET -1.168900 6.395691 1.028606
												}
											}
										}
									}
								}
								JOINT mixamorig:LeftHandThumb1
								{
									OFFSET 7.235672 -3.848206 5.434273
									CHANNELS 3 Xrotation Yrotation Zrotation
									JOINT mixamorig:LeftHandThumb2
									{
										OFFSET 6.568451 -3.792297 3.792300
										CHANNELS 3 Xrotation Yrotation Zrotation
										JOINT mixamorig:LeftHandThumb3
										{
											OFFSET 6.063080 -3.500519 3.500518
											CHANNELS 3 Xrotation Yrotation Zrotation
											JOINT mixamorig:LeftHandThumb4
											{
												OFFSET 4.793182 -2.767334 2.767349
												CHANNELS 3 Xrotation Yrotation Zrotation
												End Site
												{
													OFFSET 0.101639 6.054260 1.275483
												}
											}
										}
									}
								}
								JOINT mixamorig:LeftHandIndex1
								{
									OFFSET 23.101074 -0.309540 4.992809
									CHANNELS 3 Xrotation Yrotation Zrotation
									JOINT mixamorig:LeftHandIndex2
									{
										OFFSET 6.226883 0.000000 0.000000
										CHANNELS 3 Xrotation Yrotation Zrotation
										JOINT mixamorig:LeftHandIndex3
										{
											OFFSET 6.094330 0.000000 0.000000
											CHANNELS 3 Xrotation Yrotation Zrotation
											JOINT mixamorig:LeftHandIndex4
											{
												OFFSET 5.482605 0.000000 0.000000
												CHANNELS 3 Xrotation Yrotation Zrotation
												End Site
												{
													OFFSET -1.427902 5.233032 0.797164
												}
											}
										}
									}
								}
								JOINT mixamorig:LeftHandRing1
								{
									OFFSET 22.299240 0.021149 -3.964172
									CHANNELS 3 Xrotation Yrotation Zrotation
									JOINT mixamorig:LeftHandRing2
									{
										OFFSET 6.321869 0.000000 0.000000
										CHANNELS 3 Xrotation Yrotation Zrotation
										JOINT mixamorig:LeftHandRing3
										{
											OFFSET 5.899796 0.000000 0.000000
											CHANNELS 3 Xrotation Yrotation Zrotation
											JOINT mixamorig:LeftHandRing4
											{
												OFFSET 6.517899 0.000000 0.000000
												CHANNELS 3 Xrotation Yrotation Zrotation
												End Site
												{
													OFFSET -1.637299 6.232208 0.980890
												}
											}
										}
									}
								}
								JOINT mixamorig:LeftHandPinky1
								{
									OFFSET 20.463791 -0.302338 -8.562233
									CHANNELS 3 Xrotation Yrotation Zrotation
									JOINT mixamorig:LeftHandPinky2
									{
										OFFSET 6.908646 0.000000 0.000000
										CHANNELS 3 Xrotation Yrotation Zrotation
										JOINT mixamorig:LeftHandPinky3
										{
											OFFSET 4.622849 0.000000 0.000000
											CHANNELS 3 Xrotation Yrotation Zrotation
											JOINT mixamorig:LeftHandPinky4
											{
												OFFSET 5.216080 0.000000 0.000000
												CHANNELS 3 Xrotation Yrotation Zrotation
												End Site
												{
													OFFSET -0.606308 5.116241 0.814926
												}
											}
										}
									}
								}
							}
						}
					}
				}
				JOINT mixamorig:RightShoulder
				{
					OFFSET -12.001300 18.284088 1.348900
					CHANNELS 3 Xrotation Yrotation Zrotation
					JOINT mixamorig:RightArm
					{
						OFFSET -25.308500 -0.751312 -5.164599
						CHANNELS 3 Xrotation Yrotation Zrotation
						JOINT mixamorig:RightForeArm
						{
							OFFSET -54.684429 0.000000 0.000000
							CHANNELS 3 Xrotation Yrotation Zrotation
							JOINT mixamorig:RightHand
							{
								OFFSET -55.150291 0.000000 0.000000
								CHANNELS 3 Xrotation Yrotation Zrotation
								JOINT mixamorig:RightHandMiddle1
								{
									OFFSET -23.317566 0.000000 0.000000
									CHANNELS 3 Xrotation Yrotation Zrotation
									JOINT mixamorig:RightHandMiddle2
									{
										OFFSET -6.378403 0.000000 0.000000
										CHANNELS 3 Xrotation Yrotation Zrotation
										JOINT mixamorig:RightHandMiddle3
										{
											OFFSET -6.148193 0.000000 0.000000
											CHANNELS 3 Xrotation Yrotation Zrotation
											JOINT mixamorig:RightHandMiddle4
											{
												OFFSET -6.583389 0.000000 0.000000
												CHANNELS 3 Xrotation Yrotation Zrotation
												End Site
												{
													OFFSET 1.171692 6.395905 1.029786
												}
											}
										}
									}
								}
								JOINT mixamorig:RightHandThumb1
								{
									OFFSET -7.190521 -3.860474 5.435846
									CHANNELS 3 Xrotation Yrotation Zrotation
									JOINT mixamorig:RightHandThumb2
									{
										OFFSET -6.567429 -3.791718 3.791708
										CHANNELS 3 Xrotation Yrotation Zrotation
										JOINT mixamorig:RightHandThumb3
										{
											OFFSET -6.062469 -3.500153 3.500166
											CHANNELS 3 Xrotation Yrotation Zrotation
											JOINT mixamorig:RightHandThumb4
											{
												OFFSET -4.792618 -2.767029 2.767022
												CHANNELS 3 Xrotation Yrotation Zrotation
												End Site
												{
													OFFSET -0.100327 6.053253 1.276754
												}
											}
										}
									}
								}
								JOINT mixamorig:RightHandIndex1
								{
									OFFSET -23.048981 -0.310791 4.992554
									CHANNELS 3 Xrotation Yrotation Zrotation
									JOINT mixamorig:RightHandIndex2
									{
										OFFSET -6.227539 0.000000 0.000000
										CHANNELS 3 Xrotation Yrotation Zrotation
										JOINT mixamorig:RightHandIndex3
										{
											OFFSET -6.095047 0.000000 0.000000
											CHANNELS 3 Xrotation Yrotation Zrotation
											JOINT mixamorig:RightHandIndex4
											{
												OFFSET -5.484772 0.000000 0.000000
												CHANNELS 3 Xrotation Yrotation Zrotation
												End Site
												{
													OFFSET 1.420593 5.237305 0.797056
												}
											}
										}
									}
								}
								JOINT mixamorig:RightHandRing1
								{
									OFFSET -22.246323 0.020569 -3.963762
									CHANNELS 3 Xrotation Yrotation Zrotation
									JOINT mixamorig:RightHandRing2
									{
										OFFSET -6.322128 0.000000 0.000000
										CHANNELS 3 Xrotation Yrotation Zrotation
										JOINT mixamorig:RightHandRing3
										{
											OFFSET -5.900024 0.000000 0.000000
											CHANNELS 3 Xrotation Yrotation Zrotation
											JOINT mixamorig:RightHandRing4
											{
												OFFSET -6.518356 0.000000 0.000000
												CHANNELS 3 Xrotation Yrotation Zrotation
												End Site
												{
													OFFSET 1.636398 6.232697 0.982186
												}
											}
										}
									}
								}
								JOINT mixamorig:RightHandPinky1
								{
									OFFSET -20.411011 -0.303314 -8.561701
									CHANNELS 3 Xrotation Yrotation Zrotation
									JOINT mixamorig:RightHandPinky2
									{
										OFFSET -6.907349 0.000000 0.000000
										CHANNELS 3 Xrotation Yrotation Zrotation
										JOINT mixamorig:RightHandPinky3
										{
											OFFSET -4.623840 0.000000 0.000000
											CHANNELS 3 Xrotation Yrotation Zrotation
											JOINT mixamorig:RightHandPinky4
											{
												OFFSET -5.218353 0.000000 0.000000
												CHANNELS 3 Xrotation Yrotation Zrotation
												End Site
												{
													OFFSET 0.602097 5.118835 0.816273
												}
											}
										}
									}
								}
							}
						}
					}
				}
			}
		}
	}
	JOINT mixamorig:LeftUpLeg
	{
		OFFSET 18.168400 -13.561905 -0.039000
		CHANNELS 3 Xrotation Yrotation Zrotation
		JOINT mixamorig:LeftLeg
		{
			OFFSET 0.577358 -80.825211 -3.695000
			CHANNELS 3 Xrotation Yrotation Zrotation
			JOINT mixamorig:LeftFoot
			{
				OFFSET -0.577356 -83.370262 -6.520700
				CHANNELS 3 Xrotation Yrotation Zrotation
				JOINT mixamorig:LeftToeBase
				{
					OFFSET 0.750401 -20.798306 25.135401
					CHANNELS 3 Xrotation Yrotation Zrotation
					JOINT mixamorig:LeftToe_End
					{
						OFFSET -0.000500 0.001200 19.917799
						CHANNELS 3 Xrotation Yrotation Zrotation
						End Site
						{
							OFFSET 0.000000 19.917805 0.000000
						}
					}
				}
			}
		}
	}
	JOINT mixamorig:RightUpLeg
	{
		OFFSET -18.162500 -13.585098 -0.041000
		CHANNELS 3 Xrotation Yrotation Zrotation
		JOINT mixamorig:RightLeg
		{
			OFFSET -0.595024 -80.945297 -3.631900
			CHANNELS 3 Xrotation Yrotation Zrotation
			JOINT mixamorig:RightFoot
			{
				OFFSET 0.595024 -83.218193 -6.561200
				CHANNELS 3 Xrotation Yrotation Zrotation
				JOINT mixamorig:RightToeBase
				{
					OFFSET -0.753601 -20.807106 25.115000
					CHANNELS 3 Xrotation Yrotation Zrotation
					JOINT mixamorig:RightToe_End
					{
						OFFSET 0.000299 0.001700 19.918200
						CHANNELS 3 Xrotation Yrotation Zrotation
						End Site
						{
							OFFSET 0.000000 19.918203 0.000000
						}
					}
				}
			}
		}
	}
}
MOTION
Frames: 4
Frame Time: 0.033333
1.391153 120.326630 4.221024 -19.204957 6.304039 -6.310924 11.450016 2.767424 0.912953 22.940403 5.194783 0.636644 22.940387 5.194785 0.636648 20.637082 -3.596815 -10.898642 4.181639 -23.945567 4.532424 -0.000002 0.000001 0.000000 -0.000002 0.000001 0.000000 -0.000002 0.000001 0.000000 3.900250 -7.592910 4.561786 -12.308471 -34.260195 -48.805725 14.591514 -49.213296 5.453036 -7.055134 2.655929 46.982699 3.427467 15.178651 -49.879898 -0.956167 -2.322542 -37.084724 0.000004 0.000006 0.000006 0.000002 0.000002 0.000001 -11.657625 -12.233441 22.973912 4.538230 4.037239 16.700989 0.000007 0.000004 -0.000002 0.000004 0.000001 0.000000 0.300655 10.122274 -39.253831 -2.067064 -1.180998 -49.284616 -0.000001 -0.000001 -0.000001 -0.000000 -0.000001 -0.000002 -2.192728 27.048761 -50.542252 -1.225364 -3.764436 -41.611401 -0.000003 0.000003 0.000001 -0.000002 0.000001 0.000005 -1.158633 25.382378 -56.600593 -1.503181 -7.155204 -39.250246 -0.000003 -0.000002 -0.000003 -0.000001 0.000000 0.000001 14.003450 42.408296 -3.697973 -46.903787 -17.208213 39.712653 -52.568162 71.881143 42.825006 -9.622876 -9.085185 5.526568 -9.154666 3.229457 42.903451 -2.042618 2.703678 64.716821 0.000009 -0.000005 -0.000007 -0.000001 0.000001 -0.000002 12.738369 -4.236574 -11.973400 2.321146 -6.714502 -2.170900 -0.000003 -0.000013 -0.000006 0.000001 -0.000002 0.000001 -6.286294 3.613190 40.560686 1.152280 -2.353345 62.497269 0.000002 0.000003 0.000001 -0.000000 0.000000 -0.000004 -9.900703 6.759142 58.267613 -2.073112 4.981286 49.138976 0.000023 -0.000007 0.000010 0.000000 0.000003 0.000001 -8.296729 1.329023 56.332101 -1.544316 8.209096 32.439283 -0.000012 -0.000001 -0.000002 -0.000002 -0.000001 -0.000002 -76.325301 -0.916714 9.240329 104.825925 0.501151 -2.821637 0.041592 -5.362440 9.066073 -18.272400 -0.168466 0.615425 0.000000 -0.000000 0.000000 -68.573303 -1.597710 -11.754849 98.004062 0.732437 2.941395 -8.703509 -1.849027 1.099199 1.052893 -0.215130 1.575938 -0.000000 -0.000001 0.000000 
0.900837 119.749435 3.399796 -19.618347 6.778335 -6.162708 11.139971 2.771873 0.966035 22.315613 5.231200 0.777408 22.315633 5.231201 0.777404 20.243718 -3.727371 -10.012773 4.245722 -24.989698 6.891380 0.000003 -0.000001 -0.000002 0.000003 -0.000001 -0.000002 0.000003 -0.000001 -0.000002 3.564588 -7.885590 2.612633 -9.776752 -36.153086 -45.371471 13.249015 -48.766806 4.692253 -7.663820 2.717765 46.526695 3.746280 15.379629 -49.709072 -0.946587 -2.309679 -36.888684 0.000006 0.000004 0.000001 -0.000002 0.000001 -0.000001 -11.580301 -12.280217 23.084475 4.523188 4.035581 16.726196 0.000005 0.000002 -0.000001 -0.000001 0.000000 -0.000002 0.263510 10.333386 -38.792589 -1.901267 -1.083263 -49.196545 -0.000002 -0.000003 0.000001 -0.000002 -0.000001 0.000000 -1.974483 27.131994 -50.298305 -1.215878 -3.753812 -41.443628 -0.000002 -0.000002 -0.000001 0.000002 -0.000000 0.000003 -0.817574 25.467069 -56.327115 -1.533647 -7.192275 -39.655361 0.000002 -0.000000 -0.000004 -0.000001 0.000000 0.000001 14.589021 41.238100 -5.132845 -43.519472 -17.862623 41.852442 -53.279130 71.729472 44.253185 -10.835673 -6.781470 3.477760 -9.353904 2.982207 42.863084 -2.026868 2.696086 64.433293 0.000010 -0.000009 -0.000003 0.000002 -0.000002 -0.000002 12.468903 -4.532422 -12.335574 2.321146 -6.714497 -2.170897 -0.000002 -0.000008 -0.000011 -0.000002 0.000003 -0.000002 -6.543504 3.519830 40.664798 1.144375 -2.350065 62.283662 0.000001 0.000003 -0.000004 0.000001 -0.000000 0.000002 -10.001557 6.612492 58.401307 -2.058661 4.964820 48.984156 0.000023 -0.000009 0.000006 0.000000 0.000001 -0.000001 -8.386987 1.041011 56.417929 -1.558447 8.230900 32.590705 -0.000010 0.000000 -0.000001 -0.000001 -0.000001 -0.000000 -76.522332 -1.324609 8.973587 104.877664 -0.350591 -2.856537 0.362790 -4.915287 7.775653 -18.336469 -0.168982 0.615462 0.000000 0.000000 0.000000 -68.637876 -1.624130 -11.840625 98.146417 0.658697 2.934906 -8.360671 -2.068319 1.005694 1.055127 -0.215230 1.579342 -0.000000 0.000000 0.000000 
0.441261 119.190125 2.600769 -20.050488 7.160953 -6.016411 10.823012 2.746079 0.959275 21.679142 5.193499 0.801388 21.679137 5.193498 0.801386 19.483244 -4.210596 -8.675212 4.058917 -27.989371 10.445461 0.000002 0.000001 -0.000000 0.000002 0.000001 -0.000000 0.000002 0.000001 -0.000000 3.183594 -8.053471 0.457848 -6.963758 -37.361650 -41.829246 11.995186 -48.640605 4.148655 -7.756808 3.002775 45.848355 3.878186 15.519341 -49.656459 -0.942346 -2.303939 -36.801377 0.000007 0.000004 0.000003 0.000001 0.000002 0.000001 -11.681805 -12.202292 23.213108 4.515117 4.034862 16.739035 0.000007 0.000001 -0.000000 0.000000 0.000000 0.000000 0.217890 10.445382 -38.590763 -1.830241 -1.034768 -49.158326 -0.000001 0.000001 0.000001 0.000000 0.000003 0.000001 -1.877088 27.201049 -50.196488 -1.211643 -3.749087 -41.368929 -0.000003 0.000002 0.000002 -0.000002 0.000001 0.000003 -0.659956 25.551564 -56.212180 -1.547215 -7.209108 -39.835637 -0.000004 -0.000003 -0.000002 0.000002 0.000002 0.000004 14.670002 40.120559 -5.834319 -40.115822 -17.711939 44.072151 -53.073015 71.405687 44.639483 -11.766522 -4.410201 1.668103 -9.517763 2.796587 42.910735 -2.019009 2.692208 64.290740 0.000005 -0.000006 -0.000006 0.000002 0.000001 -0.000005 12.384049 -4.680011 -12.474128 2.321148 -6.714499 -2.170897 -0.000004 -0.000010 -0.000010 0.000001 -0.000002 -0.000000 -6.736374 3.443581 40.788640 1.140737 -2.348736 62.189508 0.000003 0.000003 0.000003 0.000002 0.000001 -0.000006 -10.071115 6.545019 58.632058 -2.052465 4.956693 48.930775 0.000024 -0.000008 0.000007 0.000001 0.000001 -0.000001 -8.474167 0.898615 56.602942 -1.573303 8.253692 32.749285 -0.000014 0.000000 -0.000002 0.000001 -0.000001 0.000000 -76.688988 -1.742740 8.937606 104.976483 -1.558580 -2.912471 0.453315 -4.393140 6.023896 -18.436456 -0.169787 0.615514 0.000000 0.000000 -0.000000 -68.667846 -1.593415 -11.835661 98.273909 0.606663 2.928840 -8.021408 -2.309019 0.966632 1.040067 -0.214482 1.556834 0.000000 -0.000001 0.000000 
0.045370 118.670227 1.864677 -20.473120 7.412456 -5.916099 10.518416 2.685202 0.898253 21.069547 5.071305 0.715381 21.069540 5.071305 0.715381 18.127664 -5.146783 -6.721066 4.011181 -33.058392 14.911676 -0.000003 0.000001 -0.000000 -0.000003 0.000001 -0.000000 -0.000003 0.000001 -0.000000 2.753519 -8.042006 -1.967554 -4.932950 -37.028706 -39.360997 10.737553 -49.062434 3.896352 -6.064618 3.651684 44.418694 3.958057 15.644091 -49.636317 -0.939546 -2.300126 -36.743785 -0.000003 0.000003 0.000005 -0.000002 0.000001 -0.000001 -11.708874 -12.157557 23.282025 4.508905 4.034401 16.748573 0.000007 0.000003 -0.000006 0.000001 -0.000006 -0.000002 0.168376 10.530076 -38.459252 -1.785239 -0.999508 -49.133707 0.000001 -0.000001 0.000004 -0.000004 0.000001 0.000002 -1.813271 27.267485 -50.133315 -1.208860 -3.745994 -41.319677 -0.000003 0.000004 0.000001 0.000000 -0.000001 0.000003 -0.552948 25.638018 -56.140426 -1.556218 -7.220328 -39.954592 -0.000004 -0.000001 -0.000003 -0.000002 -0.000001 -0.000001 14.346930 39.320204 -5.770758 -36.942642 -16.932220 45.936635 -52.566287 71.027677 44.556671 -12.404914 -2.212409 0.163657 -9.622507 2.619515 42.824378 -2.005468 2.685566 64.046581 0.000010 -0.000007 -0.000003 0.000002 -0.000000 -0.000002 12.338178 -4.796307 -12.566051 2.321144 -6.714501 -2.170899 -0.000002 -0.000009 -0.000009 0.000003 -0.000000 0.000001 -6.901819 3.377628 40.817374 1.133658 -2.345698 61.994396 0.000000 0.000003 0.000001 0.000002 0.000001 -0.000004 -10.049856 6.484982 58.649400 -2.038802 4.942480 48.776850 0.000024 -0.000010 0.000009 -0.000000 -0.000000 0.000000 -8.482933 0.796514 56.596071 -1.579030 8.262499 32.810432 -0.000012 -0.000001 -0.000004 -0.000002 0.000000 -0.000001 -76.834307 -2.200656 9.183149 105.126249 -3.123334 -2.991240 0.303797 -3.796699 3.778094 -18.555225 -0.170754 0.615571 -0.000000 0.000000 0.000000 -68.673632 -1.609462 -11.820527 98.364894 0.611433 2.925072 -7.696464 -2.493391 0.941621 0.998883 -0.212454 1.494659 0.000000 -0.000001 0.000000 
